<svg aria-hidden="true" style="position: absolute; width: 0; height: 0; overflow: hidden;" version="1.1" xmlns="http://www.w3.org/2000/svg" xmlns:xlink="http://www.w3.org/1999/xlink">
	<defs>
		<symbol id="icon-star" viewBox="0 0 32 32">
		<path d="M16 23.027l8.24 4.973-2.187-9.373 7.28-6.307-9.587-0.813-3.747-8.84-3.747 8.84-9.587 0.813 7.28 6.307-2.187 9.373z"></path>
		</symbol>
		<symbol id="icon-star-border" viewBox="0 0 32 32">
		<path d="M29.333 12.32l-9.587-0.827-3.747-8.827-3.747 8.84-9.587 0.813 7.28 6.307-2.187 9.373 8.24-4.973 8.24 4.973-2.173-9.373 7.267-6.307zM16 20.533l-5.013 3.027 1.333-5.707-4.427-3.84 5.84-0.507 2.267-5.373 2.28 5.387 5.84 0.507-4.427 3.84 1.333 5.707-5.027-3.040z"></path>
		</symbol>
		<symbol id="icon-location-searching" viewBox="0 0 32 32">
		<path d="M27.92 14.667c-0.613-5.56-5.027-9.973-10.587-10.587v-2.747h-2.667v2.747c-5.56 0.613-9.973 5.027-10.587 10.587h-2.747v2.667h2.747c0.613 5.56 5.027 9.973 10.587 10.587v2.747h2.667v-2.747c5.56-0.613 9.973-5.027 10.587-10.587h2.747v-2.667h-2.747zM16 25.333c-5.16 0-9.333-4.173-9.333-9.333s4.173-9.333 9.333-9.333 9.333 4.173 9.333 9.333-4.173 9.333-9.333 9.333z"></path>
		</symbol>
		<symbol id="icon-close" viewBox="0 0 32 32">
		<path d="M25.333 8.547l-1.88-1.88-7.453 7.453-7.453-7.453-1.88 1.88 7.453 7.453-7.453 7.453 1.88 1.88 7.453-7.453 7.453 7.453 1.88-1.88-7.453-7.453z"></path>
		</symbol>
		<symbol id="icon-chevron-right" viewBox="0 0 32 32">
		<path d="M13.333 8l-1.88 1.88 6.107 6.12-6.107 6.12 1.88 1.88 8-8z"></path>
		</symbol>
	</defs>
</svg>
